<?xml version="1.0" encoding="utf-8"?>
<!-- Generator: Adobe Illustrator 26.1.0, SVG Export Plug-In . SVG Version: 6.00 Build 0)  -->
<svg version="1.1" id="a" xmlns="http://www.w3.org/2000/svg" xmlns:xlink="http://www.w3.org/1999/xlink" x="0px" y="0px"
	 viewBox="0 0 198.9 101.9" style="enable-background:new 0 0 198.9 101.9;" xml:space="preserve">
<style type="text/css">
	.st0{fill:#FFFFFF;}
	.st1{fill:#FFE922;}
</style>
<g>
	<path class="st0" d="M0,0h44.5c10.9,0,20.5,2.1,29,6.3s15,10.2,19.6,17.9c4.7,7.7,7,16.6,7,26.7s-2.3,19-7,26.7
		c-4.7,7.7-11.2,13.7-19.6,17.9s-18.1,6.3-29,6.3H0V0z M43.7,85.8c7.5,0,14-1.4,19.7-4.3s10-6.9,13.1-12.2C79.5,64,81,57.9,81,50.9
		s-1.5-13.1-4.6-18.4c-3.1-5.3-7.4-9.4-13.1-12.2S51.1,16,43.6,16H18.9v69.8H43.7L43.7,85.8z"/>
	<path class="st1" d="M198.9,0v101.9h-15.6l-56.2-69v69h-18.8V0H124l56.2,69V0H198.9z"/>
</g>
</svg>
