<?xml version="1.0" encoding="UTF-8"?><svg id="a" xmlns="http://www.w3.org/2000/svg" viewBox="0 0 1280 1280"><defs><style>.b{fill:#fff;}</style></defs><path class="b" d="M1038.79,38H241.21c-121.03,0-218.7,97.68-218.7,218.7V1023.3c0,121.03,97.68,218.7,218.7,218.7h797.59c121.03,0,218.7-97.68,218.7-218.7V256.7c0-121.03-97.68-218.7-218.7-218.7Zm166.64,965.23c.62,103.27-83.01,187.29-186.13,187.29H260.73c-102.93,0-186.75-83.82-186.75-186.75V276.19c0-102.93,83.82-186.75,186.75-186.75H1018.69c103.12,0,186.75,83.63,186.75,186.75V1003.23ZM510.77,601.41l144.14,276.78c2.62,4.21,1.04,8.22-3.05,8.22h-89.65c-5.6,0-8.22-1.39-10.65-6.64-32.92-67.92-66.53-135.84-100.92-208.82h-.96c-30.99,68.89-64.95,141.52-97.91,209.44-2.35,4.01-4.98,5.6-9.22,5.6h-84.86c-5.21,0-5.6-4.21-2.97-7.22l140.9-268.56-136.27-271.73c-3.24-4.21,0-7.26,2.97-7.26h88.45c5.21,0,7.26,1.04,9.26,5.6,32.53,67.96,65.3,137.89,96.29,206.43h.96c29.95-67.92,62.94-138.47,94.67-205.81,2.62-4.21,4.21-6.83,9.26-6.83h82.78c4.21,0,5.83,3.24,3.24,7.26l-136.46,263.55Zm169.42,83.82c0-119.79,79.62-213.49,206.24-213.49,10.84,0,16.48,0,26.74,1.04v-136.27c0-3.24,2.59-5.25,5.21-5.25h81.2c4.21,0,5.25,1.58,5.25,4.01v472.56c0,13.85,0,31.34,2.62,50.21,0,3.24-1.04,4.21-4.21,5.87-43.22,20.49-88.45,29.75-131.68,29.75-111.76,.58-191.38-68.35-191.38-208.44Zm233.02-131.68c-7.06-2.97-17.48-5.21-29.79-5.21-64.87,0-110.1,50.02-110.1,132.87,0,94.67,46.19,132.64,104.51,132.64,12.23,0,25.74-1.39,35.39-5.6v-254.71Z"/></svg>