<?xml version="1.0" encoding="UTF-8"?><svg id="a" xmlns="http://www.w3.org/2000/svg" viewBox="0 0 1280 1280"><defs><style>.b{fill:#fff;}</style></defs><path class="b" d="M31.99,47.26V1232.74H1248.01V47.26H31.99Zm50.53,50.53H1197.2V1181.94H82.53V97.79Zm243.47,226.99c0-3.51,7.03-5.94,11.35-5.94,32.7-1.62,80.53-2.7,130.52-2.7,140.52,0,195.1,77.01,195.1,175.65,0,128.9-93.5,184.02-207.8,184.02-19.46,0-25.94-1.08-39.45-1.08v194.83c0,4.05-1.62,5.94-5.67,5.94h-78.37c-4.05,0-5.67-1.62-5.67-5.67V324.78h0Zm89.71,269.14c11.62,.81,21.08,.81,41.07,.81,59.18,0,115.12-21.08,115.12-101.06,0-64.31-39.99-97.01-107.55-97.01-20,0-39.18,.81-48.37,1.62v195.64h-.27Zm436.14-60.26c-40.26,0-53.5,20.27-53.5,36.75,0,18.38,9.19,30.81,62.69,58.64,79.45,38.64,104.58,75.12,104.58,129.71,0,81.07-61.88,124.57-145.38,124.57-44.32,0-82.15-9.19-103.77-21.89-3.24-1.62-4.05-4.05-4.05-8.38v-74.31c0-4.86,2.43-6.76,5.67-4.05,31.62,21.08,68.37,29.99,101.87,29.99,40.26,0,56.75-16.75,56.75-39.45,0-18.38-11.62-34.32-62.42-61.07-72.15-34.32-102.15-69.45-102.15-128.09,0-65.39,51.07-119.44,139.44-119.44,43.51,0,74.31,6.76,91.07,14.05,4.05,2.7,4.86,6.76,4.86,10v69.45c0,4.05-2.7,6.76-7.57,4.86-22.43-12.97-55.67-21.62-88.09-21.35h0Z"/></svg>