<?xml version="1.0" encoding="UTF-8"?><svg id="a" xmlns="http://www.w3.org/2000/svg" viewBox="0 0 1280 1280"><defs><style>.b{fill:#fff;}</style></defs><path class="b" d="M31.99,47.26V1232.74H1248.01V47.26H31.99Zm50.53,50.53H1197.2V1181.94H82.53V97.79ZM476.51,869.02c0,4.86-.81,6.49-6.49,6.49h-78.09c-4.86,0-6.49-2.43-6.49-6.49V324.78c0-4.86,2.43-6.76,6.49-6.76h78.91c3.13,0,5.67,2.54,5.67,5.67V869.02h0Zm89.98-196.45c0-121.06,79.72-215.64,207.8-215.64,10.81,0,16.75,0,26.75,.54v-134.3c0-3.24,2.7-5.13,4.86-5.13h82.42c4.32,0,5.13,1.89,5.13,4.32v473.97c0,14.05,0,31.62,2.7,50.8,0,3.24-1.08,4.05-4.32,5.94-43.51,20.81-89.71,29.99-132.95,29.99-112.68,.27-192.67-69.18-192.4-210.51h0Zm234.56-132.68c-7.57-3.24-17.56-5.13-29.99-5.13-65.12,0-110.79,49.99-110.79,133.76,0,95.39,46.48,133.76,105.12,133.76,12.43,0,25.94-1.62,35.94-5.94v-256.44h-.27Z"/></svg>