<?xml version="1.0" encoding="UTF-8"?><svg id="a" xmlns="http://www.w3.org/2000/svg" viewBox="0 0 1146.71 104.75"><defs><style>.b{fill:#fff;}.c{fill:#ffe922;}</style></defs><path class="b" d="M0,1.45H44.52c10.86,0,20.51,2.11,28.95,6.33,8.44,4.22,14.99,10.18,19.64,17.9,4.66,7.71,6.98,16.61,6.98,26.7s-2.33,18.99-6.98,26.7c-4.66,7.71-11.2,13.68-19.64,17.9-8.44,4.22-18.09,6.33-28.95,6.33H0V1.45ZM43.65,87.29c7.47,0,14.04-1.43,19.71-4.29,5.67-2.86,10.04-6.93,13.09-12.22,3.06-5.29,4.58-11.42,4.58-18.4s-1.53-13.12-4.58-18.4c-3.06-5.29-7.42-9.36-13.09-12.22-5.67-2.86-12.25-4.29-19.71-4.29H18.91V87.29h24.73Z"/><path class="b" d="M120.17,1.45h18.91V103.3h-18.91V1.45Z"/><path class="b" d="M233.21,103.3l-20.8-29.82c-.87,.1-2.18,.15-3.93,.15h-22.99v29.68h-18.91V1.45h41.9c8.82,0,16.51,1.46,23.06,4.36s11.57,7.08,15.06,12.51c3.49,5.43,5.24,11.88,5.24,19.35s-1.87,14.26-5.6,19.79c-3.73,5.53-9.09,9.65-16.08,12.37l23.42,33.46h-20.37Zm-6.84-80.6c-4.27-3.49-10.52-5.24-18.77-5.24h-22.11V58.05h22.11c8.24,0,14.5-1.77,18.77-5.31,4.27-3.54,6.4-8.56,6.4-15.06s-2.13-11.49-6.4-14.98Z"/><path class="b" d="M349.31,87.44v15.86h-76.38V1.45h74.34v15.86h-55.43v26.48h49.17v15.57h-49.17v28.08h57.47Z"/><path class="b" d="M460.9,1.45V103.3h-15.57l-56.16-68.96V103.3h-18.77V1.45h15.57l56.16,68.96V1.45h18.77Z"/><path class="c" d="M618.89,1.45V103.3h-15.57l-56.16-68.96V103.3h-18.77V1.45h15.57l56.16,68.96V1.45h18.77Z"/><path class="c" d="M712.29,79.73h-50.92l-10.04,23.57h-19.5L677.67,1.45h18.62l45.97,101.84h-19.79l-10.18-23.57Zm-6.26-14.84l-19.2-44.52-19.06,44.52h38.26Z"/><path class="c" d="M755.21,1.45h18.91V103.3h-18.91V1.45Z"/><path class="c" d="M801.62,1.45h44.52c10.86,0,20.51,2.11,28.95,6.33,8.44,4.22,14.99,10.18,19.64,17.9s6.98,16.61,6.98,26.7-2.33,18.99-6.98,26.7-11.2,13.68-19.64,17.9-18.09,6.33-28.95,6.33h-44.52V1.45Zm43.65,85.84c7.47,0,14.04-1.43,19.71-4.29,5.67-2.86,10.04-6.93,13.09-12.22,3.06-5.29,4.58-11.42,4.58-18.4s-1.53-13.12-4.58-18.4c-3.05-5.29-7.42-9.36-13.09-12.22-5.67-2.86-12.25-4.29-19.71-4.29h-24.73V87.29h24.73Z"/><path class="c" d="M941.29,97.99c-8.34-4.51-14.89-10.77-19.64-18.77-4.75-8-7.13-16.95-7.13-26.84s2.38-18.84,7.13-26.84c4.75-8,11.3-14.26,19.64-18.77,8.34-4.51,17.7-6.77,28.08-6.77s19.74,2.25,28.08,6.77c8.34,4.51,14.89,10.74,19.64,18.69,4.75,7.95,7.13,16.93,7.13,26.92s-2.38,18.96-7.13,26.92c-4.75,7.95-11.3,14.19-19.64,18.7-8.34,4.51-17.7,6.77-28.08,6.77s-19.74-2.26-28.08-6.77Zm46.41-14.4c5.43-3.06,9.7-7.32,12.8-12.8,3.1-5.48,4.66-11.61,4.66-18.4s-1.55-12.92-4.66-18.4c-3.1-5.48-7.37-9.75-12.8-12.8-5.43-3.06-11.54-4.58-18.33-4.58s-12.9,1.53-18.33,4.58c-5.43,3.06-9.7,7.32-12.8,12.8-3.11,5.48-4.66,11.62-4.66,18.4s1.55,12.93,4.66,18.4c3.1,5.48,7.37,9.75,12.8,12.8,5.43,3.06,11.54,4.58,18.33,4.58s12.9-1.53,18.33-4.58Z"/><path class="c" d="M1063.78,97.99c-8.34-4.51-14.89-10.77-19.64-18.77-4.75-8-7.13-16.95-7.13-26.84s2.38-18.84,7.13-26.84c4.75-8,11.3-14.26,19.64-18.77,8.34-4.51,17.7-6.77,28.08-6.77s19.74,2.25,28.08,6.77c8.34,4.51,14.89,10.74,19.64,18.69,4.75,7.95,7.13,16.93,7.13,26.92s-2.38,18.96-7.13,26.92c-4.75,7.95-11.3,14.19-19.64,18.7-8.34,4.51-17.7,6.77-28.08,6.77s-19.74-2.26-28.08-6.77Zm46.41-14.4c5.43-3.06,9.7-7.32,12.8-12.8,3.1-5.48,4.66-11.61,4.66-18.4s-1.55-12.92-4.66-18.4c-3.1-5.48-7.37-9.75-12.8-12.8-5.43-3.06-11.54-4.58-18.33-4.58s-12.9,1.53-18.33,4.58c-5.43,3.06-9.7,7.32-12.8,12.8-3.11,5.48-4.66,11.62-4.66,18.4s1.55,12.93,4.66,18.4c3.1,5.48,7.37,9.75,12.8,12.8,5.43,3.06,11.54,4.58,18.33,4.58s12.9-1.53,18.33-4.58Z"/></svg>