<?xml version="1.0" encoding="UTF-8"?><svg id="a" xmlns="http://www.w3.org/2000/svg" viewBox="0 0 1280 1280"><defs><style>.b{fill:#fff;}</style></defs><path class="b" d="M31.99,47.26V1232.74H1248.01V47.26H31.99Zm50.53,50.53H1197.2V1181.94H82.53V97.79ZM453.82,718.5l-40.26,151.87c-.81,4.32-2.43,5.13-7.3,5.13h-74.31c-5.13,0-5.94-1.62-5.13-7.3l143.76-503.97c2.7-9.19,4.05-17.29,4.86-42.43,0-3.51,1.89-4.86,4.32-4.86h106.2c3.51,0,5.13,.81,5.94,4.86l161.32,546.94c1.08,4.05,0,6.49-4.05,6.49h-83.5c-4.32,0-6.76-1.08-7.57-4.32l-41.88-152.68-162.41,.27h0Zm141.33-82.42c-14.32-55.94-47.56-178.62-60.26-238.07h-1.08c-10.81,59.18-37.56,159.43-58.37,238.07h119.71Zm228.07-281.57c0-32.7,22.7-51.88,51.88-51.88,30.81,0,51.88,21.08,51.88,51.88,0,33.51-21.89,51.88-52.96,51.88s-51.07-18.38-50.8-51.88h0Zm5.67,115.12c0-4.05,1.62-5.67,5.67-5.67h79.45c4.59,0,6.22,1.62,6.22,5.94v399.93c0,4.05-.81,5.67-5.94,5.67h-78.37c-5.13,0-6.76-2.43-6.76-6.49V469.62h-.27Z"/></svg>